<svg width="117" height="100" viewBox="0 0 117 100" fill="none" xmlns="http://www.w3.org/2000/svg">
<mask id="mask0_131_223" style="mask-type:alpha" maskUnits="userSpaceOnUse" x="0" y="0" width="117" height="100">
<rect width="117" height="100" fill="#D9D9D9"/>
</mask>
<g mask="url(#mask0_131_223)">
<path d="M-497.186 61.0175L-498.169 61.2038L-497.796 63.1688L-496.814 62.9825L-497 62L-497.186 61.0175ZM177.946 62L178.181 62.9721L178.19 62.9698L178.2 62.9672L177.946 62ZM460.523 62.8523C460.994 62.5635 461.141 61.9478 460.852 61.477L456.146 53.8059C455.857 53.3351 455.241 53.1877 454.77 53.4765C454.299 53.7653 454.152 54.3811 454.441 54.8518L458.625 61.6706L451.806 65.8544C451.335 66.1432 451.188 66.759 451.477 67.2297C451.765 67.7005 452.381 67.8479 452.852 67.5591L460.523 62.8523ZM-497 62L-496.814 62.9825C-433.193 50.9206 -272.591 34.0399 -139.254 62.9773L-139.041 62L-138.829 61.0227C-272.537 32.005 -433.438 48.9314 -497.186 61.0175L-497 62ZM-139.041 62L-139.254 62.9773C-5.5506 91.9939 128.042 75.0726 178.181 62.9721L177.946 62L177.711 61.0279C127.794 73.0753 -5.48663 89.9612 -138.829 61.0227L-139.041 62ZM177.946 62L178.2 62.9672C222.936 51.2233 341.968 34.7609 459.767 62.9725L460 62L460.233 61.0275C342.038 32.721 222.661 49.2275 177.692 61.0328L177.946 62Z" fill="url(#paint0_linear_131_223)"/>
</g>
<defs>
<linearGradient id="paint0_linear_131_223" x1="-497" y1="62" x2="460" y2="62" gradientUnits="userSpaceOnUse">
<stop stop-color="#0CB799"/>
<stop offset="0.4375" stop-color="#082923"/>
<stop offset="0.859393" stop-color="#8FFBE8"/>
<stop offset="1" stop-color="#0CB799"/>
</linearGradient>
</defs>
</svg>
