<svg width="129" height="100" viewBox="0 0 129 100" fill="none" xmlns="http://www.w3.org/2000/svg">
<mask id="mask0_131_220" style="mask-type:alpha" maskUnits="userSpaceOnUse" x="0" y="0" width="129" height="100">
<rect width="129" height="100" fill="#D9D9D9"/>
</mask>
<g mask="url(#mask0_131_220)">
<path d="M-343.186 61.0175L-344.169 61.2038L-343.796 63.1688L-342.814 62.9825L-343 62L-343.186 61.0175ZM331.946 62L332.181 62.9721L332.19 62.9698L332.2 62.9672L331.946 62ZM614.523 62.8523C614.994 62.5635 615.141 61.9478 614.852 61.477L610.146 53.8059C609.857 53.3351 609.241 53.1877 608.77 53.4765C608.299 53.7653 608.152 54.3811 608.441 54.8518L612.625 61.6706L605.806 65.8544C605.335 66.1432 605.188 66.759 605.477 67.2297C605.765 67.7005 606.381 67.8479 606.852 67.5591L614.523 62.8523ZM-343 62L-342.814 62.9825C-279.193 50.9206 -118.591 34.0399 14.7464 62.9773L14.9585 62L15.1706 61.0227C-118.537 32.005 -279.438 48.9314 -343.186 61.0175L-343 62ZM14.9585 62L14.7464 62.9773C148.449 91.9939 282.042 75.0726 332.181 62.9721L331.946 62L331.711 61.0279C281.794 73.0753 148.513 89.9612 15.1706 61.0227L14.9585 62ZM331.946 62L332.2 62.9672C376.936 51.2233 495.968 34.7609 613.767 62.9725L614 62L614.233 61.0275C496.038 32.721 376.661 49.2275 331.692 61.0328L331.946 62Z" fill="url(#paint0_linear_131_220)"/>
</g>
<defs>
<linearGradient id="paint0_linear_131_220" x1="-343" y1="62" x2="614" y2="62" gradientUnits="userSpaceOnUse">
<stop stop-color="#0CB799"/>
<stop offset="0.4375" stop-color="#082923"/>
<stop offset="0.859393" stop-color="#8FFBE8"/>
<stop offset="1" stop-color="#0CB799"/>
</linearGradient>
</defs>
</svg>
