<svg width="63" height="63" viewBox="0 0 63 63" fill="none" xmlns="http://www.w3.org/2000/svg">
<path d="M62.4932 47.504C63.2816 51.6812 62.2842 58.4979 62.7781 62.8054C57.9642 60.9375 52.5801 57.8847 48.0067 55.5503C45.1918 54.1135 42.4033 52.7363 39.5361 51.3772C36.8657 50.1115 34.3563 48.3974 31.3937 47.7118C28.4094 48.4453 26.4557 50.1314 23.84 51.2766C15.8951 54.7553 8.22907 59.6167 0.198026 62.8574C0.0964748 62.156 0.0815517 61.2411 0.046117 60.5202C-0.100218 56.8407 0.0823647 50.8606 0.666395 47.2834C2.47278 45.8937 4.41041 45.3565 6.35428 44.249C12.9097 40.5138 19.9756 37.6138 26.5731 33.9551C28.1115 33.102 29.8275 32.2635 31.1568 31.1802C31.8624 28.25 31.2588 22.1611 31.3363 18.9411C31.3532 18.2405 31.297 17.5049 30.7002 17.0326C27.87 16.2949 19.2818 22.8443 16.048 23.1026C14.3548 23.2379 8.59984 19.9088 7.06332 19.1031C5.22543 18.1393 2.31759 16.8967 0.835536 15.746C0.243961 13.4253 0.364052 2.84632 0.611443 0.254427C7.10515 3.29215 13.5313 6.43878 19.886 9.69234C23.2785 11.4044 28.3152 14.5627 31.8158 15.4363C33.1682 14.9933 34.8071 14.0575 36.0598 13.379C44.7266 8.68477 53.8402 4.56287 62.5941 -1.14257e-08L62.6668 2.82074C62.7763 5.08159 63.1861 13.6923 62.2888 15.2826C61.258 17.1094 47.8894 23.1064 45.1374 24.4791C42.8488 25.6208 40.6413 26.8852 38.3699 28.053C36.5663 28.9801 33.3246 30.2578 32.1011 31.6419C30.9911 32.8976 31.3904 43.2273 31.6583 45.0548C31.7172 45.456 31.8701 45.6937 32.2307 45.9461C34.6728 46.5871 43.539 40.7395 47.0492 39.4996C49.4856 40.3488 60.8671 46.1474 62.4932 47.504Z" fill="#0CB799"/>
</svg>
