<svg width="101" height="23" viewBox="0 0 101 23" fill="none" xmlns="http://www.w3.org/2000/svg">
<path d="M-0.000863714 16.1507L11.5539 2.54466H0.180896V2.06964e-05H15.3449V2.05131L3.76417 15.6574H15.3449V18.176H-0.000863714V16.1507ZM23.9527 18.4876C21.7024 18.4876 19.9367 17.8817 18.6557 16.67C17.392 15.441 16.7602 13.7445 16.7602 11.5807C16.7602 10.1613 17.0545 8.93223 17.643 7.8936C18.2489 6.83766 19.0971 6.03272 20.1877 5.47879C21.2956 4.92485 22.5765 4.64788 24.0306 4.64788C26.2464 4.64788 27.9947 5.26241 29.2757 6.49145C30.574 7.70318 31.2231 9.39096 31.2231 11.5548C31.2231 12.9742 30.9202 14.2033 30.3143 15.2419C29.7258 16.2805 28.8862 17.0855 27.7956 17.6567C26.7051 18.2106 25.4241 18.4876 23.9527 18.4876ZM23.9527 16.1767C25.476 16.1767 26.6358 15.7699 27.4321 14.9563C28.2457 14.1254 28.6525 12.9915 28.6525 11.5548C28.6525 10.118 28.2457 8.99282 27.4321 8.17922C26.6358 7.34832 25.4847 6.93287 23.9787 6.93287C22.4727 6.93287 21.3129 7.34832 20.4993 8.17922C19.703 8.99282 19.3049 10.1267 19.3049 11.5807C19.3049 13.0175 19.703 14.1427 20.4993 14.9563C21.2956 15.7699 22.4467 16.1767 23.9527 16.1767ZM35.5379 22.8499C34.6551 22.8499 33.8328 22.6941 33.0711 22.3825L33.6684 20.2792C34.3088 20.4524 34.8108 20.5389 35.1744 20.5389C35.6764 20.5389 36.1178 20.3918 36.4986 20.0975C36.8794 19.8205 37.2343 19.3445 37.5632 18.6694L38.0046 17.7346C38.0739 17.5269 38.1085 17.3797 38.1085 17.2932C38.1085 17.172 38.0652 17.0249 37.9787 16.8518L31.7209 5.11527H34.681L39.5106 14.6707L43.9248 5.11527H46.7291L39.8742 19.3445C39.2683 20.6081 38.6538 21.5083 38.0306 22.0449C37.4247 22.5815 36.5938 22.8499 35.5379 22.8499ZM55.2004 18.3838C53.7117 18.3838 52.6471 18.0116 52.0066 17.2672C51.3835 16.5056 51.0459 15.3977 50.994 13.9436V7.45218H48.7609V5.19317H50.994V0.363541H53.5127V5.19317H57.797V7.45218H53.5127V14.1513C53.5127 15.4323 54.231 16.0728 55.6678 16.0728C56.2564 16.0728 56.9228 15.9862 57.6672 15.8131L58.2644 17.8125C57.6412 18.0202 57.0959 18.1674 56.6285 18.2539C56.1785 18.3405 55.7024 18.3838 55.2004 18.3838ZM60.5013 4.98544H62.994V6.80304C63.496 6.16255 64.1365 5.68651 64.9155 5.37493C65.6944 5.04603 66.508 4.88158 67.3562 4.88158C67.8582 4.88158 68.3429 4.93351 68.8103 5.03737L68.4728 7.37429C67.9881 7.28773 67.538 7.24446 67.1226 7.24446C65.9801 7.24446 65.002 7.51277 64.1884 8.04939C63.3921 8.56871 62.994 9.33903 62.994 10.3603V18.176H60.5013V4.98544ZM76.8224 18.4876C74.5893 18.4876 72.8323 17.8817 71.5513 16.67C70.2703 15.4583 69.6299 13.7705 69.6299 11.6067C69.6299 9.42558 70.279 7.7205 71.5773 6.49145C72.8929 5.26241 74.6672 4.64788 76.9003 4.64788C79.116 4.64788 80.8644 5.26241 82.1453 6.49145C83.4263 7.70318 84.0668 9.39096 84.0668 11.5548V12.152H72.2264C72.313 13.3637 72.7457 14.3418 73.5247 15.0861C74.3037 15.8131 75.4029 16.1767 76.8224 16.1767C77.9822 16.1767 78.9256 15.9343 79.6526 15.4496C80.3797 14.9649 80.873 14.2639 81.1327 13.3464H83.911C83.5302 14.9736 82.7339 16.2373 81.5222 17.1374C80.3104 18.0202 78.7438 18.4703 76.8224 18.4876ZM81.3664 10.4123C81.1933 9.33902 80.7259 8.49081 79.9642 7.86763C79.2199 7.24446 78.1726 6.93287 76.8224 6.93287C75.6626 6.93287 74.6845 7.22715 73.8882 7.8157C73.092 8.40426 72.5813 9.26978 72.3563 10.4123H81.3664ZM93.127 18.4876C90.894 18.4876 89.1369 17.8817 87.856 16.67C86.575 15.4583 85.9345 13.7705 85.9345 11.6067C85.9345 9.42558 86.5836 7.7205 87.8819 6.49145C89.1975 5.26241 90.9719 4.64788 93.2049 4.64788C95.4206 4.64788 97.169 5.26241 98.45 6.49145C99.731 7.70318 100.371 9.39096 100.371 11.5548V12.152H88.5311C88.6176 13.3637 89.0504 14.3418 89.8294 15.0861C90.6083 15.8131 91.7075 16.1767 93.127 16.1767C94.2868 16.1767 95.2302 15.9343 95.9573 15.4496C96.6843 14.9649 97.1777 14.2639 97.4373 13.3464H100.216C99.8348 14.9736 99.0385 16.2373 97.8268 17.1374C96.6151 18.0202 95.0485 18.4703 93.127 18.4876ZM97.671 10.4123C97.4979 9.33902 97.0305 8.49081 96.2689 7.86763C95.5245 7.24446 94.4772 6.93287 93.127 6.93287C91.9672 6.93287 90.9892 7.22715 90.1929 7.8157C89.3966 8.40426 88.8859 9.26978 88.6609 10.4123H97.671Z" fill="black"/>
</svg>
