<svg width="26" height="26" viewBox="0 0 26 26" fill="none" xmlns="http://www.w3.org/2000/svg">
<g clip-path="url(#clip0_131_274)">
<path d="M15.8038 5.25005C16.8293 5.45014 17.7719 5.95172 18.5107 6.69058C19.2496 7.42944 19.7512 8.37198 19.9513 9.39755L15.8038 5.25005ZM15.8038 1.05005C17.9345 1.28676 19.9214 2.24093 21.4383 3.75591C22.9552 5.27088 23.9119 7.25661 24.1513 9.38705L15.8038 1.05005ZM23.1013 17.766V20.916C23.1025 21.2085 23.0426 21.4979 22.9254 21.7659C22.8083 22.0338 22.6364 22.2743 22.421 22.472C22.2055 22.6697 21.9511 22.8202 21.6741 22.9139C21.397 23.0076 21.1035 23.0424 20.8123 23.016C17.5812 22.665 14.4776 21.5609 11.7508 19.7925C9.21379 18.1804 7.06288 16.0295 5.45077 13.4925C3.67625 10.7533 2.57193 7.63459 2.22727 4.38905C2.20103 4.09869 2.23554 3.80605 2.3286 3.52975C2.42165 3.25346 2.57122 2.99957 2.76778 2.78425C2.96433 2.56893 3.20357 2.39689 3.47025 2.2791C3.73694 2.1613 4.02523 2.10032 4.31677 2.10005H7.46677C7.97634 2.09503 8.47035 2.27548 8.85672 2.60776C9.24309 2.94003 9.49545 3.40147 9.56677 3.90605C9.69973 4.91412 9.94629 5.90391 10.3018 6.85655C10.443 7.23237 10.4736 7.64081 10.3899 8.03347C10.3061 8.42614 10.1116 8.78657 9.82927 9.07205L8.49577 10.4055C9.99051 13.0343 12.167 15.2108 14.7958 16.7055L16.1293 15.372C16.4148 15.0897 16.7752 14.8952 17.1678 14.8114C17.5605 14.7277 17.969 14.7583 18.3448 14.8995C19.2974 15.255 20.2872 15.5016 21.2953 15.6345C21.8053 15.7065 22.2711 15.9634 22.6041 16.3564C22.9371 16.7494 23.114 17.2511 23.1013 17.766Z" stroke="white" stroke-width="1.05" stroke-linecap="round" stroke-linejoin="round"/>
</g>
<defs>
<clipPath id="clip0_131_274">
<rect width="25.2" height="25.2" fill="white"/>
</clipPath>
</defs>
</svg>
