<svg width="130" height="100" viewBox="0 0 130 100" fill="none" xmlns="http://www.w3.org/2000/svg">
<mask id="mask0_131_229" style="mask-type:alpha" maskUnits="userSpaceOnUse" x="0" y="0" width="130" height="100">
<rect width="130" height="100" fill="#D9D9D9"/>
</mask>
<g mask="url(#mask0_131_229)">
<path d="M-693.186 61.0175L-694.169 61.2038L-693.796 63.1688L-692.814 62.9825L-693 62L-693.186 61.0175ZM-18.0541 62L-17.8195 62.9721L-17.8098 62.9698L-17.8002 62.9672L-18.0541 62ZM264.523 62.8523C264.994 62.5635 265.141 61.9478 264.852 61.477L260.146 53.8059C259.857 53.3351 259.241 53.1877 258.77 53.4765C258.299 53.7653 258.152 54.3811 258.441 54.8518L262.625 61.6706L255.806 65.8544C255.335 66.1432 255.188 66.759 255.477 67.2297C255.765 67.7005 256.381 67.8479 256.852 67.5591L264.523 62.8523ZM-693 62L-692.814 62.9825C-629.193 50.9206 -468.591 34.0399 -335.254 62.9773L-335.041 62L-334.829 61.0227C-468.537 32.005 -629.438 48.9314 -693.186 61.0175L-693 62ZM-335.041 62L-335.254 62.9773C-201.551 91.9939 -67.9575 75.0726 -17.8195 62.9721L-18.0541 62L-18.2887 61.0279C-68.2065 73.0753 -201.487 89.9612 -334.829 61.0227L-335.041 62ZM-18.0541 62L-17.8002 62.9672C26.9357 51.2233 145.968 34.7609 263.767 62.9725L264 62L264.233 61.0275C146.038 32.721 26.6614 49.2275 -18.308 61.0328L-18.0541 62Z" fill="url(#paint0_linear_131_229)"/>
</g>
<defs>
<linearGradient id="paint0_linear_131_229" x1="-693" y1="62" x2="264" y2="62" gradientUnits="userSpaceOnUse">
<stop stop-color="#0CB799"/>
<stop offset="0.4375" stop-color="#082923"/>
<stop offset="0.859393" stop-color="#8FFBE8"/>
<stop offset="1" stop-color="#0CB799"/>
</linearGradient>
</defs>
</svg>
