<svg width="117" height="100" viewBox="0 0 117 100" fill="none" xmlns="http://www.w3.org/2000/svg">
<mask id="mask0_131_217" style="mask-type:alpha" maskUnits="userSpaceOnUse" x="0" y="0" width="117" height="100">
<rect width="117" height="100" fill="#D9D9D9"/>
</mask>
<g mask="url(#mask0_131_217)">
<path d="M-154.186 61.0175L-155.169 61.2038L-154.796 63.1688L-153.814 62.9825L-154 62L-154.186 61.0175ZM520.946 62L521.181 62.9721L521.19 62.9698L521.2 62.9672L520.946 62ZM803.523 62.8523C803.994 62.5635 804.141 61.9478 803.852 61.477L799.146 53.8059C798.857 53.3351 798.241 53.1877 797.77 53.4765C797.299 53.7653 797.152 54.3811 797.441 54.8518L801.625 61.6706L794.806 65.8544C794.335 66.1432 794.188 66.759 794.477 67.2297C794.765 67.7005 795.381 67.8479 795.852 67.5591L803.523 62.8523ZM-154 62L-153.814 62.9825C-90.1925 50.9206 70.4086 34.0399 203.746 62.9773L203.959 62L204.171 61.0227C70.4627 32.005 -90.4375 48.9314 -154.186 61.0175L-154 62ZM203.959 62L203.746 62.9773C337.449 91.9939 471.042 75.0726 521.181 62.9721L520.946 62L520.711 61.0279C470.794 73.0753 337.513 89.9612 204.171 61.0227L203.959 62ZM520.946 62L521.2 62.9672C565.936 51.2233 684.968 34.7609 802.767 62.9725L803 62L803.233 61.0275C685.038 32.721 565.661 49.2275 520.692 61.0328L520.946 62Z" fill="url(#paint0_linear_131_217)"/>
</g>
<defs>
<linearGradient id="paint0_linear_131_217" x1="-154" y1="62" x2="803" y2="62" gradientUnits="userSpaceOnUse">
<stop stop-color="#0CB799"/>
<stop offset="0.4375" stop-color="#082923"/>
<stop offset="0.859393" stop-color="#8FFBE8"/>
<stop offset="1" stop-color="#0CB799"/>
</linearGradient>
</defs>
</svg>
