<svg width="117" height="100" viewBox="0 0 117 100" fill="none" xmlns="http://www.w3.org/2000/svg">
<mask id="mask0_131_226" style="mask-type:alpha" maskUnits="userSpaceOnUse" x="0" y="0" width="117" height="100">
<rect width="117" height="100" fill="#D9D9D9"/>
</mask>
<g mask="url(#mask0_131_226)">
<path d="M-843.186 61.0175L-844.169 61.2038L-843.796 63.1688L-842.814 62.9825L-843 62L-843.186 61.0175ZM-168.054 62L-167.819 62.9721L-167.81 62.9698L-167.8 62.9672L-168.054 62ZM114.523 62.8523C114.994 62.5635 115.141 61.9478 114.852 61.477L110.146 53.8059C109.857 53.3351 109.241 53.1877 108.77 53.4765C108.299 53.7653 108.152 54.3811 108.441 54.8518L112.625 61.6706L105.806 65.8544C105.335 66.1432 105.188 66.759 105.477 67.2297C105.765 67.7005 106.381 67.8479 106.852 67.5591L114.523 62.8523ZM-843 62L-842.814 62.9825C-779.193 50.9206 -618.591 34.0399 -485.254 62.9773L-485.041 62L-484.829 61.0227C-618.537 32.005 -779.438 48.9314 -843.186 61.0175L-843 62ZM-485.041 62L-485.254 62.9773C-351.551 91.9939 -217.958 75.0726 -167.819 62.9721L-168.054 62L-168.289 61.0279C-218.206 73.0753 -351.487 89.9612 -484.829 61.0227L-485.041 62ZM-168.054 62L-167.8 62.9672C-123.064 51.2233 -4.03168 34.7609 113.767 62.9725L114 62L114.233 61.0275C-3.96228 32.721 -123.339 49.2275 -168.308 61.0328L-168.054 62Z" fill="url(#paint0_linear_131_226)"/>
</g>
<defs>
<linearGradient id="paint0_linear_131_226" x1="-843" y1="62" x2="114" y2="62" gradientUnits="userSpaceOnUse">
<stop stop-color="#0CB799"/>
<stop offset="0.4375" stop-color="#082923"/>
<stop offset="0.859393" stop-color="#8FFBE8"/>
<stop offset="1" stop-color="#0CB799"/>
</linearGradient>
</defs>
</svg>
