<svg width="130" height="100" viewBox="0 0 130 100" fill="none" xmlns="http://www.w3.org/2000/svg">
<mask id="mask0_131_214" style="mask-type:alpha" maskUnits="userSpaceOnUse" x="0" y="0" width="130" height="100">
<rect width="130" height="100" fill="#D9D9D9"/>
</mask>
<g mask="url(#mask0_131_214)">
<path d="M-0.186271 61.0175L-1.16877 61.2038L-0.796228 63.1688L0.186271 62.9825L0 62L-0.186271 61.0175ZM674.946 62L675.181 62.9721L675.19 62.9698L675.2 62.9672L674.946 62ZM957.523 62.8523C957.994 62.5635 958.141 61.9478 957.852 61.477L953.146 53.8059C952.857 53.3351 952.241 53.1877 951.77 53.4765C951.299 53.7653 951.152 54.3811 951.441 54.8518L955.625 61.6706L948.806 65.8544C948.335 66.1432 948.188 66.759 948.477 67.2297C948.765 67.7005 949.381 67.8479 949.852 67.5591L957.523 62.8523ZM0 62L0.186271 62.9825C63.8075 50.9206 224.409 34.0399 357.746 62.9773L357.959 62L358.171 61.0227C224.463 32.005 63.5625 48.9314 -0.186271 61.0175L0 62ZM357.959 62L357.746 62.9773C491.449 91.9939 625.042 75.0726 675.181 62.9721L674.946 62L674.711 61.0279C624.794 73.0753 491.513 89.9612 358.171 61.0227L357.959 62ZM674.946 62L675.2 62.9672C719.936 51.2233 838.968 34.7609 956.767 62.9725L957 62L957.233 61.0275C839.038 32.721 719.661 49.2275 674.692 61.0328L674.946 62Z" fill="url(#paint0_linear_131_214)"/>
</g>
<defs>
<linearGradient id="paint0_linear_131_214" x1="0" y1="62" x2="957" y2="62" gradientUnits="userSpaceOnUse">
<stop stop-color="#0CB799"/>
<stop offset="0.4375" stop-color="#082923"/>
<stop offset="0.859393" stop-color="#8FFBE8"/>
<stop offset="1" stop-color="#0CB799"/>
</linearGradient>
</defs>
</svg>
