<svg width="72" height="72" viewBox="0 0 72 72" fill="none" xmlns="http://www.w3.org/2000/svg">
<rect width="72" height="72" rx="13" fill="#0CB799" fill-opacity="0.17"/>
<rect x="8" y="7" width="57" height="57" rx="10" fill="#0CB799"/>
<path d="M35 37H30C29.7167 37 29.4793 36.904 29.288 36.712C29.0967 36.52 29.0007 36.2827 29 36C28.9993 35.7173 29.0953 35.48 29.288 35.288C29.4807 35.096 29.718 35 30 35H35V30C35 29.7167 35.096 29.4793 35.288 29.288C35.48 29.0967 35.7173 29.0007 36 29C36.2827 28.9993 36.5203 29.0953 36.713 29.288C36.9057 29.4807 37.0013 29.718 37 30V35H42C42.2833 35 42.521 35.096 42.713 35.288C42.905 35.48 43.0007 35.7173 43 36C42.9993 36.2827 42.9033 36.5203 42.712 36.713C42.5207 36.9057 42.2833 37.0013 42 37H37V42C37 42.2833 36.904 42.521 36.712 42.713C36.52 42.905 36.2827 43.0007 36 43C35.7173 42.9993 35.48 42.9033 35.288 42.712C35.096 42.5207 35 42.2833 35 42V37Z" fill="white"/>
</svg>
