<svg width="26" height="26" viewBox="0 0 26 26" fill="none" xmlns="http://www.w3.org/2000/svg">
<g clip-path="url(#clip0_131_268)">
<path d="M22.0484 10.5C22.0484 17.85 12.5984 24.15 12.5984 24.15C12.5984 24.15 3.14844 17.85 3.14844 10.5C3.14844 7.99375 4.14406 5.59011 5.91628 3.81789C7.6885 2.04567 10.0921 1.05005 12.5984 1.05005C15.1047 1.05005 17.5084 2.04567 19.2806 3.81789C21.0528 5.59011 22.0484 7.99375 22.0484 10.5Z" stroke="white" stroke-width="1.05" stroke-linecap="round" stroke-linejoin="round"/>
<path d="M12.5992 13.6501C14.3389 13.6501 15.7492 12.2398 15.7492 10.5001C15.7492 8.7604 14.3389 7.3501 12.5992 7.3501C10.8595 7.3501 9.44922 8.7604 9.44922 10.5001C9.44922 12.2398 10.8595 13.6501 12.5992 13.6501Z" stroke="white" stroke-width="1.05" stroke-linecap="round" stroke-linejoin="round"/>
</g>
<defs>
<clipPath id="clip0_131_268">
<rect width="25.2" height="25.2" fill="white"/>
</clipPath>
</defs>
</svg>
