<svg width="182" height="63" viewBox="0 0 182 63" fill="none" xmlns="http://www.w3.org/2000/svg">
<path d="M72.2452 37.9807L83.8 24.3746H72.427V21.83H87.591V23.8813L76.0103 37.4873H87.591V40.006H72.2452V37.9807ZM96.1988 40.3176C93.9484 40.3176 92.1828 39.7117 90.9018 38.5C89.6381 37.2709 89.0063 35.5745 89.0063 33.4107C89.0063 31.9912 89.3006 30.7622 89.8891 29.7236C90.495 28.6676 91.3432 27.8627 92.4338 27.3087C93.5416 26.7548 94.8226 26.4778 96.2767 26.4778C98.4924 26.4778 100.241 27.0924 101.522 28.3214C102.82 29.5331 103.469 31.2209 103.469 33.3847C103.469 34.8042 103.166 36.0332 102.56 37.0719C101.972 38.1105 101.132 38.9154 100.042 39.4867C98.9512 40.0406 97.6702 40.3176 96.1988 40.3176ZM96.1988 38.0066C97.7221 38.0066 98.8819 37.5998 99.6782 36.7862C100.492 35.9553 100.899 34.8215 100.899 33.3847C100.899 31.948 100.492 30.8228 99.6782 30.0092C98.8819 29.1783 97.7308 28.7628 96.2248 28.7628C94.7188 28.7628 93.559 29.1783 92.7454 30.0092C91.9491 30.8228 91.5509 31.9566 91.5509 33.4107C91.5509 34.8475 91.9491 35.9726 92.7454 36.7862C93.5416 37.5998 94.6928 38.0066 96.1988 38.0066ZM107.784 44.6798C106.901 44.6798 106.079 44.524 105.317 44.2124L105.914 42.1092C106.555 42.2823 107.057 42.3689 107.42 42.3689C107.922 42.3689 108.364 42.2217 108.745 41.9274C109.126 41.6505 109.48 41.1744 109.809 40.4993L110.251 39.5646C110.32 39.3568 110.355 39.2097 110.355 39.1231C110.355 39.002 110.311 38.8548 110.225 38.6817L103.967 26.9452H106.927L111.757 36.5006L116.171 26.9452H118.975L112.12 41.1744C111.514 42.4381 110.9 43.3382 110.277 43.8749C109.671 44.4115 108.84 44.6798 107.784 44.6798ZM127.447 40.2137C125.958 40.2137 124.893 39.8415 124.253 39.0972C123.63 38.3355 123.292 37.2276 123.24 35.7736V29.2821H121.007V27.0231H123.24V22.1935H125.759V27.0231H130.043V29.2821H125.759V35.9813C125.759 37.2623 126.477 37.9028 127.914 37.9028C128.502 37.9028 129.169 37.8162 129.913 37.6431L130.51 39.6425C129.887 39.8502 129.342 39.9973 128.875 40.0839C128.425 40.1704 127.949 40.2137 127.447 40.2137ZM132.747 26.8154H135.24V28.633C135.742 27.9925 136.383 27.5165 137.162 27.2049C137.941 26.876 138.754 26.7115 139.602 26.7115C140.104 26.7115 140.589 26.7635 141.056 26.8673L140.719 29.2042C140.234 29.1177 139.784 29.0744 139.369 29.0744C138.226 29.0744 137.248 29.3427 136.435 29.8794C135.638 30.3987 135.24 31.169 135.24 32.1903V40.006H132.747V26.8154ZM149.068 40.3176C146.835 40.3176 145.078 39.7117 143.797 38.5C142.516 37.2882 141.876 35.6005 141.876 33.4367C141.876 31.2555 142.525 29.5505 143.823 28.3214C145.139 27.0924 146.913 26.4778 149.146 26.4778C151.362 26.4778 153.11 27.0924 154.391 28.3214C155.672 29.5331 156.313 31.2209 156.313 33.3847V33.9819H144.473C144.559 35.1937 144.992 36.1717 145.771 36.9161C146.55 37.6431 147.649 38.0066 149.068 38.0066C150.228 38.0066 151.172 37.7643 151.899 37.2796C152.626 36.7949 153.119 36.0938 153.379 35.1764H156.157C155.776 36.8035 154.98 38.0672 153.768 38.9674C152.557 39.8502 150.99 40.3003 149.068 40.3176ZM153.612 32.2422C153.439 31.169 152.972 30.3208 152.21 29.6976C151.466 29.0744 150.419 28.7628 149.068 28.7628C147.909 28.7628 146.931 29.0571 146.134 29.6457C145.338 30.2342 144.827 31.0997 144.602 32.2422H153.612ZM165.373 40.3176C163.14 40.3176 161.383 39.7117 160.102 38.5C158.821 37.2882 158.181 35.6005 158.181 33.4367C158.181 31.2555 158.83 29.5505 160.128 28.3214C161.444 27.0924 163.218 26.4778 165.451 26.4778C167.667 26.4778 169.415 27.0924 170.696 28.3214C171.977 29.5331 172.618 31.2209 172.618 33.3847V33.9819H160.777C160.864 35.1937 161.296 36.1717 162.075 36.9161C162.854 37.6431 163.954 38.0066 165.373 38.0066C166.533 38.0066 167.476 37.7643 168.203 37.2796C168.93 36.7949 169.424 36.0938 169.683 35.1764H172.462C172.081 36.8035 171.285 38.0672 170.073 38.9674C168.861 39.8502 167.295 40.3003 165.373 40.3176ZM169.917 32.2422C169.744 31.169 169.277 30.3208 168.515 29.6976C167.771 29.0744 166.723 28.7628 165.373 28.7628C164.213 28.7628 163.235 29.0571 162.439 29.6457C161.643 30.2342 161.132 31.0997 160.907 32.2422H169.917Z" fill="white"/>
<path d="M62.4932 47.504C63.2816 51.6812 62.2842 58.4979 62.7781 62.8054C57.9642 60.9375 52.5801 57.8847 48.0067 55.5503C45.1918 54.1135 42.4033 52.7363 39.5361 51.3772C36.8657 50.1115 34.3563 48.3974 31.3937 47.7118C28.4094 48.4453 26.4557 50.1314 23.84 51.2766C15.8951 54.7553 8.22907 59.6167 0.198026 62.8574C0.0964748 62.156 0.0815517 61.2411 0.046117 60.5202C-0.100218 56.8407 0.0823647 50.8606 0.666395 47.2834C2.47278 45.8937 4.41041 45.3565 6.35428 44.249C12.9097 40.5138 19.9756 37.6138 26.5731 33.9551C28.1115 33.102 29.8275 32.2635 31.1568 31.1802C31.8624 28.25 31.2588 22.1611 31.3363 18.9411C31.3532 18.2405 31.297 17.5049 30.7002 17.0326C27.87 16.2949 19.2818 22.8443 16.048 23.1026C14.3548 23.2379 8.59984 19.9088 7.06332 19.1031C5.22543 18.1393 2.31759 16.8967 0.835536 15.746C0.243961 13.4253 0.364052 2.84632 0.611443 0.254427C7.10515 3.29215 13.5313 6.43878 19.886 9.69234C23.2785 11.4044 28.3152 14.5627 31.8158 15.4363C33.1682 14.9933 34.8071 14.0575 36.0598 13.379C44.7266 8.68477 53.8402 4.56287 62.5941 -1.14257e-08L62.6668 2.82074C62.7763 5.08159 63.1861 13.6923 62.2888 15.2826C61.258 17.1094 47.8894 23.1064 45.1374 24.4791C42.8488 25.6208 40.6413 26.8852 38.3699 28.053C36.5663 28.9801 33.3246 30.2578 32.1011 31.6419C30.9911 32.8976 31.3904 43.2273 31.6583 45.0548C31.7172 45.456 31.8701 45.6937 32.2307 45.9461C34.6728 46.5871 43.539 40.7395 47.0492 39.4996C49.4856 40.3488 60.8671 46.1474 62.4932 47.504Z" fill="#0CB799"/>
</svg>
